<?xml version="1.0" encoding="utf-8" standalone="no"?>
<!DOCTYPE svg PUBLIC "-//W3C//DTD SVG 1.1//EN"
  "http://www.w3.org/Graphics/SVG/1.1/DTD/svg11.dtd">
<svg xmlns:xlink="http://www.w3.org/1999/xlink" width="391.6pt" height="274.50375pt" viewBox="0 0 391.6 274.50375" xmlns="http://www.w3.org/2000/svg" version="1.1">
 <metadata>
  <rdf:RDF xmlns:dc="http://purl.org/dc/elements/1.1/" xmlns:cc="http://creativecommons.org/ns#" xmlns:rdf="http://www.w3.org/1999/02/22-rdf-syntax-ns#">
   <cc:Work>
    <dc:type rdf:resource="http://purl.org/dc/dcmitype/StillImage"/>
    <dc:date>2022-03-28T01:38:40.184438</dc:date>
    <dc:format>image/svg+xml</dc:format>
    <dc:creator>
     <cc:Agent>
      <dc:title>Matplotlib v3.5.1, https://matplotlib.org/</dc:title>
     </cc:Agent>
    </dc:creator>
   </cc:Work>
  </rdf:RDF>
 </metadata>
 <defs>
  <style type="text/css">*{stroke-linejoin: round; stroke-linecap: butt}</style>
 </defs>
 <g id="figure_1">
  <g id="patch_1">
   <path d="M 0 274.50375 
L 391.6 274.50375 
L 391.6 0 
L 0 0 
z
" style="fill: #ffffff"/>
  </g>
  <g id="axes_1">
   <g id="patch_2">
    <path d="M 49.6 241.56 
L 384.4 241.56 
L 384.4 24.12 
L 49.6 24.12 
z
" style="fill: #ffffff"/>
   </g>
   <g id="matplotlib.axis_1">
    <g id="xtick_1">
     <g id="line2d_1">
      <defs>
       <path id="mcc27cb41cc" d="M 0 0 
L 0 -3.5 
" style="stroke: #000000; stroke-width: 0.5"/>
      </defs>
      <g>
       <use xlink:href="#mcc27cb41cc" x="95.254545" y="241.56" style="stroke: #000000; stroke-width: 0.5"/>
      </g>
     </g>
     <g id="text_1">
      <!-- −4 -->
      <g transform="translate(90.030327 251.964687)scale(0.1 -0.1)">
       <defs>
        <path id="HersheyTex-2212" d="M -88 1919 
C -88 1906 -81 1888 -75 1881 
L 13 1794 
C 19 1788 38 1781 50 1781 
L 2806 1781 
C 2819 1781 2838 1788 2844 1794 
L 2931 1881 
C 2938 1888 2944 1906 2944 1919 
C 2944 1931 2938 1950 2931 1956 
L 2844 2044 
C 2838 2050 2819 2056 2806 2056 
L 50 2056 
C 38 2056 19 2050 13 2044 
L -75 1956 
C -81 1950 -88 1931 -88 1919 
z
" transform="scale(0.015625)"/>
        <path id="HersheyTex-34" d="M 500 1525 
C 500 1513 506 1500 519 1488 
L 606 1400 
C 613 1394 625 1388 638 1388 
L 2469 1388 
L 2469 150 
C 2469 138 2475 119 2481 113 
L 2569 25 
C 2575 19 2594 13 2606 13 
C 2619 13 2638 19 2644 25 
L 2731 113 
C 2738 119 2744 138 2744 150 
L 2744 1388 
L 3588 1388 
C 3600 1388 3619 1394 3625 1400 
L 3713 1488 
C 3719 1494 3725 1513 3725 1525 
C 3725 1538 3719 1556 3713 1563 
L 3625 1650 
C 3619 1656 3600 1663 3588 1663 
L 2744 1663 
L 2744 4281 
C 2744 4294 2738 4313 2731 4319 
L 2644 4406 
C 2638 4413 2619 4419 2606 4419 
C 2588 4419 2575 4413 2563 4400 
L 2475 4313 
L 506 1556 
C 506 1556 500 1538 500 1525 
z
M 2469 1663 
L 881 1663 
L 2469 3875 
L 2469 1663 
z
" transform="scale(0.015625)"/>
       </defs>
       <use xlink:href="#HersheyTex-2212"/>
       <use xlink:href="#HersheyTex-34" x="43.066406"/>
      </g>
     </g>
    </g>
    <g id="xtick_2">
     <g id="line2d_2">
      <g>
       <use xlink:href="#mcc27cb41cc" x="156.127273" y="241.56" style="stroke: #000000; stroke-width: 0.5"/>
      </g>
     </g>
     <g id="text_2">
      <!-- −2 -->
      <g transform="translate(150.903054 251.964687)scale(0.1 -0.1)">
       <defs>
        <path id="HersheyTex-32" d="M 969 3300 
L 969 3481 
L 1163 3856 
L 1263 3956 
L 1631 4144 
L 2400 4144 
L 2769 3956 
L 2869 3856 
L 3056 3481 
L 3056 3113 
L 2869 2731 
L 2481 2150 
L 513 181 
C 506 175 500 156 500 144 
C 500 131 506 119 513 113 
L 600 25 
C 606 19 619 13 638 13 
L 3394 13 
C 3406 13 3425 19 3431 25 
L 3519 113 
C 3525 119 3531 138 3531 150 
C 3531 163 3525 181 3519 188 
L 3431 275 
C 3425 281 3406 288 3394 288 
L 931 288 
C 1531 888 2138 1488 2738 2088 
L 3131 2681 
L 3331 3075 
L 3331 3519 
L 3131 3913 
C 3131 3919 3069 3981 2825 4219 
L 2431 4413 
C 2425 4419 2413 4419 2406 4419 
L 1619 4419 
C 1613 4419 1606 4419 1600 4413 
L 1206 4219 
C 1169 4181 1138 4156 1100 4119 
C 906 3931 900 3913 900 3913 
L 700 3519 
C 694 3513 694 3500 694 3494 
L 694 3300 
C 694 3288 700 3269 706 3263 
L 794 3175 
C 800 3169 819 3163 831 3163 
C 844 3163 863 3169 869 3175 
L 956 3263 
C 963 3269 969 3288 969 3300 
z
" transform="scale(0.015625)"/>
       </defs>
       <use xlink:href="#HersheyTex-2212"/>
       <use xlink:href="#HersheyTex-32" x="43.066406"/>
      </g>
     </g>
    </g>
    <g id="xtick_3">
     <g id="line2d_3">
      <g>
       <use xlink:href="#mcc27cb41cc" x="217" y="241.56" style="stroke: #000000; stroke-width: 0.5"/>
      </g>
     </g>
     <g id="text_3">
      <!-- 0 -->
      <g transform="translate(213.928906 251.964687)scale(0.1 -0.1)">
       <defs>
        <path id="HersheyTex-30" d="M 2231 13 
L 2819 206 
C 2831 213 2831 213 2925 306 
C 2925 306 2919 306 3325 906 
C 3331 913 3331 919 3331 925 
L 3531 1906 
L 3531 2519 
L 3331 3506 
C 3331 3513 3331 3513 3325 3519 
L 2931 4113 
C 2831 4213 2831 4213 2819 4219 
L 2231 4419 
L 1800 4419 
L 1213 4219 
C 1200 4213 1200 4213 1100 4113 
L 706 3519 
C 700 3513 700 3513 700 3506 
L 500 2519 
L 500 1906 
L 700 925 
C 700 919 700 913 706 906 
L 1100 319 
C 1106 300 1200 213 1213 206 
L 1800 13 
L 2231 13 
z
M 2731 3969 
L 3063 3475 
L 3256 2506 
L 3256 1925 
L 3063 956 
L 2731 463 
L 2206 288 
L 1825 288 
L 1300 463 
L 969 956 
L 775 1925 
L 775 2506 
L 969 3475 
L 1300 3969 
L 1825 4144 
L 2206 4144 
L 2731 3969 
z
" transform="scale(0.015625)"/>
       </defs>
       <use xlink:href="#HersheyTex-30"/>
      </g>
     </g>
    </g>
    <g id="xtick_4">
     <g id="line2d_4">
      <g>
       <use xlink:href="#mcc27cb41cc" x="277.872727" y="241.56" style="stroke: #000000; stroke-width: 0.5"/>
      </g>
     </g>
     <g id="text_4">
      <!-- 2 -->
      <g transform="translate(274.801634 251.964687)scale(0.1 -0.1)">
       <use xlink:href="#HersheyTex-32"/>
      </g>
     </g>
    </g>
    <g id="xtick_5">
     <g id="line2d_5">
      <g>
       <use xlink:href="#mcc27cb41cc" x="338.745455" y="241.56" style="stroke: #000000; stroke-width: 0.5"/>
      </g>
     </g>
     <g id="text_5">
      <!-- 4 -->
      <g transform="translate(335.674361 251.964687)scale(0.1 -0.1)">
       <use xlink:href="#HersheyTex-34"/>
      </g>
     </g>
    </g>
    <g id="xtick_6">
     <g id="line2d_6">
      <defs>
       <path id="mcdcfa30a88" d="M 0 0 
L 0 -2 
" style="stroke: #000000; stroke-width: 0.6"/>
      </defs>
      <g>
       <use xlink:href="#mcdcfa30a88" x="64.818182" y="241.56" style="stroke: #000000; stroke-width: 0.6"/>
      </g>
     </g>
    </g>
    <g id="xtick_7">
     <g id="line2d_7">
      <g>
       <use xlink:href="#mcdcfa30a88" x="80.036364" y="241.56" style="stroke: #000000; stroke-width: 0.6"/>
      </g>
     </g>
    </g>
    <g id="xtick_8">
     <g id="line2d_8">
      <g>
       <use xlink:href="#mcdcfa30a88" x="110.472727" y="241.56" style="stroke: #000000; stroke-width: 0.6"/>
      </g>
     </g>
    </g>
    <g id="xtick_9">
     <g id="line2d_9">
      <g>
       <use xlink:href="#mcdcfa30a88" x="125.690909" y="241.56" style="stroke: #000000; stroke-width: 0.6"/>
      </g>
     </g>
    </g>
    <g id="xtick_10">
     <g id="line2d_10">
      <g>
       <use xlink:href="#mcdcfa30a88" x="140.909091" y="241.56" style="stroke: #000000; stroke-width: 0.6"/>
      </g>
     </g>
    </g>
    <g id="xtick_11">
     <g id="line2d_11">
      <g>
       <use xlink:href="#mcdcfa30a88" x="171.345455" y="241.56" style="stroke: #000000; stroke-width: 0.6"/>
      </g>
     </g>
    </g>
    <g id="xtick_12">
     <g id="line2d_12">
      <g>
       <use xlink:href="#mcdcfa30a88" x="186.563636" y="241.56" style="stroke: #000000; stroke-width: 0.6"/>
      </g>
     </g>
    </g>
    <g id="xtick_13">
     <g id="line2d_13">
      <g>
       <use xlink:href="#mcdcfa30a88" x="201.781818" y="241.56" style="stroke: #000000; stroke-width: 0.6"/>
      </g>
     </g>
    </g>
    <g id="xtick_14">
     <g id="line2d_14">
      <g>
       <use xlink:href="#mcdcfa30a88" x="232.218182" y="241.56" style="stroke: #000000; stroke-width: 0.6"/>
      </g>
     </g>
    </g>
    <g id="xtick_15">
     <g id="line2d_15">
      <g>
       <use xlink:href="#mcdcfa30a88" x="247.436364" y="241.56" style="stroke: #000000; stroke-width: 0.6"/>
      </g>
     </g>
    </g>
    <g id="xtick_16">
     <g id="line2d_16">
      <g>
       <use xlink:href="#mcdcfa30a88" x="262.654545" y="241.56" style="stroke: #000000; stroke-width: 0.6"/>
      </g>
     </g>
    </g>
    <g id="xtick_17">
     <g id="line2d_17">
      <g>
       <use xlink:href="#mcdcfa30a88" x="293.090909" y="241.56" style="stroke: #000000; stroke-width: 0.6"/>
      </g>
     </g>
    </g>
    <g id="xtick_18">
     <g id="line2d_18">
      <g>
       <use xlink:href="#mcdcfa30a88" x="308.309091" y="241.56" style="stroke: #000000; stroke-width: 0.6"/>
      </g>
     </g>
    </g>
    <g id="xtick_19">
     <g id="line2d_19">
      <g>
       <use xlink:href="#mcdcfa30a88" x="323.527273" y="241.56" style="stroke: #000000; stroke-width: 0.6"/>
      </g>
     </g>
    </g>
    <g id="xtick_20">
     <g id="line2d_20">
      <g>
       <use xlink:href="#mcdcfa30a88" x="353.963636" y="241.56" style="stroke: #000000; stroke-width: 0.6"/>
      </g>
     </g>
    </g>
    <g id="xtick_21">
     <g id="line2d_21">
      <g>
       <use xlink:href="#mcdcfa30a88" x="369.181818" y="241.56" style="stroke: #000000; stroke-width: 0.6"/>
      </g>
     </g>
    </g>
    <g id="xtick_22">
     <g id="line2d_22">
      <g>
       <use xlink:href="#mcdcfa30a88" x="384.4" y="241.56" style="stroke: #000000; stroke-width: 0.6"/>
      </g>
     </g>
    </g>
    <g id="text_6">
     <!-- $\xi$ -->
     <g transform="translate(214.5 265.10375)scale(0.1 -0.1)">
      <defs>
       <path id="HersheyTex-3be" d="M 1994 4413 
L 1600 4219 
C 1500 4119 1400 4025 1300 3925 
C 1294 3913 1288 3900 1288 3888 
L 1288 3688 
C 1288 3675 1294 3663 1300 3656 
L 1588 3369 
C 1594 3363 1600 3363 1606 3356 
L 1788 3300 
L 1606 3238 
L 1600 3231 
L 1206 3038 
L 1094 2925 
L 900 2531 
C 894 2525 894 2519 894 2513 
L 894 2113 
C 894 2100 900 2088 906 2081 
C 1363 1625 1463 1531 1463 1531 
L 1406 1588 
L 1538 1544 
L 1219 1463 
L 1206 1463 
C 819 1269 819 1269 800 1256 
C 788 1250 794 1250 700 1156 
L 506 763 
C 500 756 500 744 500 738 
L 500 344 
C 500 331 506 319 513 306 
L 994 -175 
C 1000 -181 1000 -181 1006 -181 
L 1788 -575 
L 1875 -663 
L 1875 -963 
L 1613 -1094 
L 1225 -1094 
C 1213 -1094 1194 -1100 1188 -1106 
L 1100 -1194 
C 1094 -1200 1088 -1219 1088 -1231 
C 1088 -1244 1094 -1263 1100 -1269 
L 1188 -1356 
C 1194 -1363 1213 -1369 1225 -1369 
L 1625 -1369 
C 1631 -1369 1638 -1369 1644 -1363 
L 2038 -1169 
L 2138 -1069 
C 2150 -1056 2150 -1050 2150 -1038 
L 2150 -638 
C 2150 -625 2144 -613 2138 -606 
C 1875 -338 1850 -313 1844 -313 
L 1063 81 
L 775 363 
L 775 725 
L 931 1038 
L 1244 1194 
L 2019 1388 
L 2413 1388 
C 2425 1388 2444 1394 2450 1400 
L 2538 1488 
C 2544 1494 2550 1513 2550 1525 
C 2550 1538 2544 1556 2538 1563 
L 2450 1650 
C 2444 1656 2425 1663 2413 1663 
L 2025 1663 
L 1450 1850 
L 1169 2138 
L 1169 2500 
L 1319 2813 
L 1644 2969 
L 2219 3163 
L 2800 3163 
C 2813 3163 2831 3169 2838 3175 
L 2925 3263 
C 2931 3269 2938 3288 2938 3300 
C 2938 3313 2931 3331 2925 3338 
L 2838 3425 
C 2831 3431 2813 3438 2800 3438 
L 2219 3438 
L 1650 3625 
L 1563 3713 
L 1563 3869 
L 1650 3956 
L 2038 4150 
L 2138 4250 
C 2150 4263 2150 4269 2150 4281 
C 2150 4300 2144 4319 2138 4325 
L 2050 4413 
C 2044 4419 2031 4419 2025 4419 
C 2013 4419 1994 4413 1994 4413 
z
" transform="scale(0.015625)"/>
      </defs>
      <use xlink:href="#HersheyTex-3be" transform="translate(0 0.953125)"/>
     </g>
    </g>
   </g>
   <g id="matplotlib.axis_2">
    <g id="ytick_1">
     <g id="line2d_23">
      <defs>
       <path id="m15ed3fe5de" d="M 0 0 
L 3.5 0 
" style="stroke: #000000; stroke-width: 0.5"/>
      </defs>
      <g>
       <use xlink:href="#m15ed3fe5de" x="49.6" y="216.065354" style="stroke: #000000; stroke-width: 0.5"/>
      </g>
     </g>
     <g id="text_7">
      <!-- $\mathdefault{10^{-10}}$ -->
      <g transform="translate(21.8 219.517697)scale(0.1 -0.1)">
       <defs>
        <path id="HersheyTex-31" d="M 1225 3356 
C 1231 3356 1238 3356 1250 3363 
L 1644 3556 
L 1650 3563 
C 1656 3563 1663 3563 2075 3981 
L 2075 150 
C 2075 138 2081 119 2088 113 
L 2175 25 
C 2181 19 2200 13 2213 13 
C 2225 13 2244 19 2250 25 
L 2338 113 
C 2344 119 2350 138 2350 150 
L 2350 4281 
C 2350 4300 2344 4313 2338 4319 
L 2250 4406 
C 2244 4413 2231 4419 2219 4419 
C 2206 4419 2188 4413 2181 4406 
L 1594 3819 
L 1206 3625 
L 1106 3525 
C 1094 3513 1094 3506 1094 3494 
C 1094 3481 1094 3469 1106 3456 
L 1194 3369 
C 1200 3363 1213 3356 1225 3356 
z
" transform="scale(0.015625)"/>
       </defs>
       <use xlink:href="#HersheyTex-31" transform="translate(0 0.373438)"/>
       <use xlink:href="#HersheyTex-30" transform="translate(61.425781 0.373438)"/>
       <use xlink:href="#HersheyTex-2212" transform="translate(123.683906 33.667188)scale(0.7)"/>
       <use xlink:href="#HersheyTex-31" transform="translate(153.830391 33.667188)scale(0.7)"/>
       <use xlink:href="#HersheyTex-30" transform="translate(196.828438 33.667188)scale(0.7)"/>
      </g>
     </g>
    </g>
    <g id="ytick_2">
     <g id="line2d_24">
      <g>
       <use xlink:href="#m15ed3fe5de" x="49.6" y="179.648976" style="stroke: #000000; stroke-width: 0.5"/>
      </g>
     </g>
     <g id="text_8">
      <!-- $\mathdefault{10^{-8}}$ -->
      <g transform="translate(26.1 183.10132)scale(0.1 -0.1)">
       <defs>
        <path id="HersheyTex-38" d="M 2200 2375 
L 2775 2181 
L 3069 1888 
L 3256 1513 
L 3256 944 
L 3069 569 
L 2975 475 
L 2400 288 
L 1631 288 
L 1056 475 
L 963 569 
L 775 944 
L 775 1513 
L 963 1888 
L 1256 2181 
L 1831 2375 
L 2013 2419 
L 2200 2375 
z
M 2013 2700 
C 1888 2731 1888 2731 1444 2844 
L 1125 3000 
L 975 3306 
L 975 3681 
L 1119 3975 
L 1631 4144 
L 2400 4144 
L 2913 3975 
L 3063 3681 
L 3063 3306 
L 2906 3000 
L 2588 2844 
C 2156 2731 2156 2731 2013 2700 
z
M 1606 4419 
L 1013 4219 
C 1000 4213 1000 4213 906 4119 
C 900 4113 906 4119 700 3713 
L 700 3275 
C 894 2888 894 2888 906 2869 
C 913 2856 913 2863 1006 2769 
L 1400 2575 
C 1406 2569 1406 2569 1413 2569 
L 1500 2544 
L 1213 2450 
L 1200 2444 
C 1194 2444 1200 2444 700 1944 
L 506 1550 
C 500 1544 500 1531 500 1525 
L 500 938 
C 500 931 500 919 506 913 
L 700 519 
C 700 519 844 369 994 219 
C 1000 213 1006 213 1013 206 
L 1606 13 
L 2425 13 
L 3019 206 
L 3331 519 
L 3525 913 
C 3531 919 3531 931 3531 938 
L 3531 1525 
C 3531 1531 3531 1544 3525 1550 
L 3331 1944 
L 2763 2513 
L 2819 2450 
L 2531 2544 
L 2619 2569 
C 2625 2569 2625 2569 2631 2575 
L 3025 2769 
L 3113 2856 
C 3125 2869 3125 2869 3331 3275 
C 3338 3281 3338 3294 3338 3300 
L 3338 3688 
C 3338 3694 3338 3706 3331 3713 
L 3131 4106 
C 3125 4125 3031 4213 3019 4219 
L 2425 4419 
L 1606 4419 
z
" transform="scale(0.015625)"/>
       </defs>
       <use xlink:href="#HersheyTex-31" transform="translate(0 0.373438)"/>
       <use xlink:href="#HersheyTex-30" transform="translate(61.425781 0.373438)"/>
       <use xlink:href="#HersheyTex-2212" transform="translate(123.683906 33.667188)scale(0.7)"/>
       <use xlink:href="#HersheyTex-38" transform="translate(153.830391 33.667188)scale(0.7)"/>
      </g>
     </g>
    </g>
    <g id="ytick_3">
     <g id="line2d_25">
      <g>
       <use xlink:href="#m15ed3fe5de" x="49.6" y="143.232598" style="stroke: #000000; stroke-width: 0.5"/>
      </g>
     </g>
     <g id="text_9">
      <!-- $\mathdefault{10^{-6}}$ -->
      <g transform="translate(26.1 146.684942)scale(0.1 -0.1)">
       <defs>
        <path id="HersheyTex-36" d="M 975 1525 
L 1163 2088 
L 1456 2381 
L 2025 2569 
L 2206 2569 
L 2781 2381 
L 3069 2088 
L 3263 1519 
L 3263 1338 
L 3069 763 
L 2781 475 
L 2206 288 
L 2025 288 
L 1456 475 
L 1169 763 
L 975 1525 
z
M 3538 1525 
C 3538 1531 3538 1538 3531 1544 
L 3338 2131 
C 3331 2138 3331 2144 3325 2150 
C 2869 2606 2769 2700 2769 2700 
L 2825 2644 
L 2231 2844 
L 2000 2844 
L 1413 2644 
L 1400 2638 
C 1394 2638 1394 2631 975 2213 
L 975 2506 
L 1169 3475 
L 1500 3969 
L 2025 4144 
L 2406 4144 
L 2919 3975 
L 3069 3669 
C 3075 3656 3075 3656 3169 3563 
C 3175 3556 3188 3550 3200 3550 
C 3200 3550 3225 3550 3238 3563 
L 3325 3650 
C 3331 3656 3338 3669 3338 3681 
C 3338 3688 3338 3700 3331 3713 
L 3138 4106 
C 3138 4113 3050 4200 3019 4219 
L 2431 4419 
L 2000 4419 
L 1413 4219 
C 1400 4213 1400 4213 1300 4113 
L 906 3519 
C 900 3513 900 3513 900 3506 
L 700 2519 
L 700 1513 
L 900 725 
C 900 719 906 706 913 700 
C 1369 244 1469 150 1469 150 
L 1413 206 
L 2000 13 
L 2231 13 
L 2825 206 
C 2831 213 2838 213 2844 219 
C 3300 675 3394 775 3394 775 
L 3338 719 
L 3531 1313 
C 3538 1319 3538 1319 3538 1325 
L 3538 1525 
z
" transform="scale(0.015625)"/>
       </defs>
       <use xlink:href="#HersheyTex-31" transform="translate(0 0.373438)"/>
       <use xlink:href="#HersheyTex-30" transform="translate(61.425781 0.373438)"/>
       <use xlink:href="#HersheyTex-2212" transform="translate(123.683906 33.667188)scale(0.7)"/>
       <use xlink:href="#HersheyTex-36" transform="translate(153.830391 33.667188)scale(0.7)"/>
      </g>
     </g>
    </g>
    <g id="ytick_4">
     <g id="line2d_26">
      <g>
       <use xlink:href="#m15ed3fe5de" x="49.6" y="106.816221" style="stroke: #000000; stroke-width: 0.5"/>
      </g>
     </g>
     <g id="text_10">
      <!-- $\mathdefault{10^{-4}}$ -->
      <g transform="translate(26.1 110.268565)scale(0.1 -0.1)">
       <use xlink:href="#HersheyTex-31" transform="translate(0 0.373438)"/>
       <use xlink:href="#HersheyTex-30" transform="translate(61.425781 0.373438)"/>
       <use xlink:href="#HersheyTex-2212" transform="translate(123.683906 33.667188)scale(0.7)"/>
       <use xlink:href="#HersheyTex-34" transform="translate(153.830391 33.667188)scale(0.7)"/>
      </g>
     </g>
    </g>
    <g id="ytick_5">
     <g id="line2d_27">
      <g>
       <use xlink:href="#m15ed3fe5de" x="49.6" y="70.399843" style="stroke: #000000; stroke-width: 0.5"/>
      </g>
     </g>
     <g id="text_11">
      <!-- $\mathdefault{10^{-2}}$ -->
      <g transform="translate(26.1 73.852187)scale(0.1 -0.1)">
       <use xlink:href="#HersheyTex-31" transform="translate(0 0.373438)"/>
       <use xlink:href="#HersheyTex-30" transform="translate(61.425781 0.373438)"/>
       <use xlink:href="#HersheyTex-2212" transform="translate(123.683906 33.667188)scale(0.7)"/>
       <use xlink:href="#HersheyTex-32" transform="translate(153.830391 33.667188)scale(0.7)"/>
      </g>
     </g>
    </g>
    <g id="ytick_6">
     <g id="line2d_28">
      <g>
       <use xlink:href="#m15ed3fe5de" x="49.6" y="33.983466" style="stroke: #000000; stroke-width: 0.5"/>
      </g>
     </g>
     <g id="text_12">
      <!-- $\mathdefault{10^{0}}$ -->
      <g transform="translate(29.1 37.435809)scale(0.1 -0.1)">
       <use xlink:href="#HersheyTex-31" transform="translate(0 0.373438)"/>
       <use xlink:href="#HersheyTex-30" transform="translate(61.425781 0.373438)"/>
       <use xlink:href="#HersheyTex-30" transform="translate(123.683906 33.667188)scale(0.7)"/>
      </g>
     </g>
    </g>
    <g id="text_13">
     <!-- $\log{\{\exp{(-\xi^2)}\}} = -\xi^2$ -->
     <g transform="translate(15.5 180.54)rotate(-90)scale(0.1 -0.1)">
      <defs>
       <path id="HersheyTex-6c" d="M 700 4281 
L 700 150 
C 700 138 706 119 713 113 
L 800 25 
C 806 19 825 13 838 13 
C 850 13 869 19 875 25 
L 963 113 
C 969 119 975 138 975 150 
L 975 4281 
C 975 4294 969 4313 963 4319 
L 875 4406 
C 869 4413 850 4419 838 4419 
C 825 4419 806 4413 800 4406 
L 713 4319 
C 706 4313 700 4294 700 4281 
z
" transform="scale(0.015625)"/>
       <path id="HersheyTex-6f" d="M 1631 2763 
L 2200 2763 
L 2575 2575 
L 2869 2288 
L 3063 1713 
L 3063 1338 
L 2869 763 
L 2575 475 
L 2200 288 
L 1631 288 
L 1256 475 
L 963 763 
L 775 1338 
L 775 1713 
L 963 2288 
L 1256 2575 
L 1631 2763 
z
M 3338 1725 
C 3338 1731 3338 1731 3331 1738 
L 3138 2331 
L 3131 2338 
C 3131 2344 3131 2344 2644 2831 
C 2638 2838 2638 2838 2631 2838 
L 2238 3038 
L 1600 3038 
L 1206 2838 
C 1200 2838 1200 2838 1194 2831 
C 738 2375 644 2275 644 2275 
L 700 2331 
L 500 1738 
L 500 1313 
L 700 719 
L 706 713 
C 706 706 706 706 1194 219 
C 1200 213 1200 213 1206 213 
L 1600 13 
L 2238 13 
L 2631 213 
C 2638 213 2638 213 2644 219 
C 3100 675 3194 775 3194 775 
L 3138 719 
L 3331 1313 
C 3338 1319 3338 1319 3338 1325 
L 3338 1725 
z
" transform="scale(0.015625)"/>
       <path id="HersheyTex-67" d="M 2863 2900 
L 2863 2613 
C 2663 2819 2638 2838 2631 2838 
L 2238 3038 
L 1600 3038 
L 1206 2838 
C 1200 2838 1200 2838 1194 2831 
C 738 2375 644 2275 644 2275 
L 700 2331 
L 500 1738 
L 500 1313 
L 700 719 
L 706 713 
C 706 706 706 706 1194 219 
C 1200 213 1200 213 1206 213 
L 1600 13 
L 2238 13 
L 2631 213 
C 2638 213 2638 213 2644 219 
L 2863 438 
L 2863 -238 
L 2675 -806 
L 2575 -906 
L 2200 -1094 
L 1631 -1094 
L 1250 -900 
C 1244 -900 1238 -894 1231 -894 
C 1213 -894 1206 -900 1194 -913 
L 1100 -1000 
C 1088 -1013 1088 -1025 1088 -1038 
C 1088 -1050 1094 -1063 1100 -1069 
C 1194 -1163 1194 -1163 1206 -1169 
L 1600 -1363 
C 1606 -1369 1619 -1369 1625 -1369 
L 2213 -1369 
C 2219 -1369 2231 -1369 2238 -1363 
L 2631 -1169 
L 2925 -875 
C 2931 -869 2931 -863 2938 -856 
L 3138 -263 
L 3138 2900 
C 3138 2913 3131 2931 3125 2938 
L 3038 3025 
C 3031 3031 3013 3038 3000 3038 
C 2988 3038 2969 3031 2963 3025 
L 2875 2938 
C 2869 2931 2863 2913 2863 2900 
z
M 2863 756 
L 2575 475 
L 2200 288 
L 1631 288 
L 1256 475 
L 963 763 
L 775 1338 
L 775 1713 
L 963 2288 
L 1256 2575 
L 1631 2763 
L 2200 2763 
L 2575 2575 
L 2863 2294 
L 2863 756 
z
" transform="scale(0.015625)"/>
       <path id="HersheyTex-7b" d="M 1706 944 
L 1706 1306 
C 1706 1319 1700 1331 1694 1338 
C 1206 1825 1238 1800 1231 1806 
C 1225 1813 1200 1825 1013 1919 
L 1219 2025 
L 1694 2500 
C 1700 2506 1706 2519 1706 2531 
L 1706 2894 
C 1706 2900 1713 2900 1713 2906 
C 1713 2906 1706 2906 1519 3288 
C 1519 3288 1475 3338 1319 3494 
C 1300 3531 1113 3881 1113 3888 
L 1113 4281 
C 1113 4281 1319 4675 1319 4681 
L 1431 4794 
L 1819 4981 
C 1825 4981 1825 4981 1919 5075 
C 1925 5081 1931 5100 1931 5113 
C 1931 5125 1925 5138 1919 5144 
L 1831 5231 
C 1825 5238 1813 5244 1800 5244 
C 1800 5244 1800 5250 1788 5250 
C 1781 5250 1381 5044 1375 5038 
C 1306 4969 1075 4756 1056 4725 
C 1050 4706 1050 4706 863 4331 
C 850 4319 844 4306 844 4294 
C 844 4288 850 4281 850 4281 
L 850 3888 
C 850 3888 844 3881 844 3875 
C 844 3863 850 3850 863 3838 
L 1056 3456 
C 1063 3438 1063 3438 1075 3425 
L 1263 3238 
L 1444 2881 
L 1444 2550 
L 1175 2281 
L 794 2094 
C 775 2088 781 2088 681 1988 
C 656 1963 656 1931 656 1919 
C 656 1900 656 1875 681 1850 
L 769 1763 
C 775 1756 775 1756 1175 1556 
L 1444 1288 
L 1444 956 
L 1263 600 
L 1163 500 
C 1163 500 1156 500 1150 494 
C 1056 400 1056 400 1056 394 
C 1050 375 1050 375 863 0 
C 850 -13 844 -25 844 -38 
C 844 -44 850 -50 850 -50 
L 850 -444 
C 850 -444 844 -450 844 -456 
C 844 -469 850 -481 863 -494 
L 1056 -875 
C 1063 -894 1075 -906 1094 -925 
C 1250 -1081 1269 -1100 1375 -1200 
C 1388 -1213 1781 -1413 1788 -1413 
C 1794 -1413 1794 -1406 1800 -1406 
C 1813 -1406 1825 -1400 1831 -1394 
L 1919 -1306 
C 1925 -1300 1931 -1288 1931 -1275 
C 1931 -1263 1925 -1250 1919 -1244 
L 1831 -1156 
C 1825 -1150 1825 -1150 1431 -956 
L 1369 -894 
L 1319 -844 
C 1319 -838 1113 -444 1113 -444 
L 1113 -50 
C 1113 -50 1119 -44 1319 350 
L 1319 356 
C 1425 456 1425 456 1506 538 
C 1513 544 1713 925 1713 931 
C 1713 938 1706 938 1706 944 
z
" transform="scale(0.015625)"/>
       <path id="HersheyTex-65" d="M 2994 875 
C 2981 875 2975 869 2963 863 
L 2575 475 
L 2200 288 
L 1631 288 
L 1256 475 
L 963 763 
L 775 1338 
L 775 1588 
L 3000 1588 
C 3013 1588 3031 1594 3038 1600 
L 3125 1688 
C 3131 1694 3138 1713 3138 1725 
L 3138 2113 
C 3138 2119 3138 2131 3131 2138 
L 2938 2531 
C 2900 2569 2875 2600 2838 2638 
C 2650 2831 2631 2838 2631 2838 
L 2238 3038 
L 1600 3038 
L 1206 2838 
C 1200 2838 1200 2838 1194 2831 
C 738 2375 644 2275 644 2275 
L 700 2331 
L 500 1738 
L 500 1313 
L 700 719 
L 706 713 
C 706 706 706 706 1194 219 
C 1200 213 1200 213 1206 213 
L 1600 13 
L 2238 13 
L 2631 213 
C 2638 213 2638 213 2644 219 
L 3125 700 
C 3131 713 3138 719 3138 731 
C 3138 744 3131 756 3119 769 
L 3031 856 
C 3019 869 3006 875 2994 875 
z
M 2863 1863 
L 825 1863 
L 963 2288 
L 1256 2575 
L 1631 2763 
L 2200 2763 
L 2575 2575 
L 2675 2475 
L 2863 2106 
L 2863 1863 
z
" transform="scale(0.015625)"/>
       <path id="HersheyTex-78" d="M 2806 3038 
C 2794 3038 2775 3031 2769 3025 
L 2681 2938 
L 1719 1719 
L 763 2931 
L 663 3031 
C 650 3044 644 3044 631 3044 
C 619 3044 613 3038 606 3031 
L 519 2944 
C 506 2931 500 2919 500 2906 
C 500 2894 506 2881 513 2875 
L 1569 1525 
L 513 175 
C 506 163 500 150 500 138 
C 500 125 506 119 513 113 
L 600 25 
C 606 19 619 13 631 13 
C 644 13 656 13 669 25 
L 756 113 
C 756 113 763 113 1719 1331 
L 2675 119 
L 2763 31 
C 2781 13 2794 13 2813 13 
C 2825 13 2838 19 2844 25 
L 2931 113 
C 2938 119 2944 131 2944 144 
C 2944 156 2938 169 2931 175 
L 1869 1525 
L 2931 2875 
C 2938 2888 2938 2894 2938 2906 
C 2938 2919 2931 2931 2925 2938 
L 2838 3031 
C 2831 3038 2819 3038 2806 3038 
z
" transform="scale(0.015625)"/>
       <path id="HersheyTex-70" d="M 700 2900 
L 700 -1231 
C 700 -1244 706 -1263 713 -1269 
L 800 -1356 
C 806 -1363 825 -1369 838 -1369 
C 850 -1369 869 -1363 875 -1356 
L 963 -1269 
C 969 -1263 975 -1244 975 -1231 
L 975 438 
C 1175 231 1200 213 1206 213 
L 1600 13 
L 2238 13 
L 2631 213 
C 2638 213 2638 213 2644 219 
C 3100 675 3194 775 3194 775 
L 3138 719 
L 3338 1313 
L 3338 1738 
L 3138 2331 
L 3131 2338 
C 3131 2344 3131 2344 2644 2831 
C 2638 2838 2638 2838 2631 2838 
L 2238 3038 
L 1600 3038 
L 1206 2838 
C 1200 2838 1200 2838 1194 2831 
L 975 2613 
L 975 2900 
C 975 2913 969 2931 963 2938 
L 875 3025 
C 869 3031 850 3038 838 3038 
C 825 3038 806 3031 800 3025 
L 713 2938 
C 706 2931 700 2913 700 2900 
z
M 975 2294 
L 1263 2575 
L 1638 2763 
L 2206 2763 
L 2581 2575 
L 2875 2288 
L 3063 1713 
L 3063 1338 
L 2875 763 
L 2581 475 
L 2206 288 
L 1638 288 
L 1263 475 
L 975 756 
L 975 2294 
z
" transform="scale(0.015625)"/>
       <path id="HersheyTex-28" d="M 2213 5206 
C 2200 5206 2188 5200 2181 5194 
L 1700 4713 
C 1694 4706 1694 4706 1694 4700 
C 1563 4500 1431 4300 1294 4106 
L 900 3319 
L 900 3306 
L 700 2325 
L 700 1513 
L 900 531 
L 900 519 
L 1294 -269 
L 1300 -275 
L 1694 -863 
C 1694 -869 1694 -869 1700 -875 
L 2181 -1356 
C 2194 -1369 2206 -1375 2219 -1375 
C 2231 -1375 2244 -1363 2250 -1356 
L 2338 -1269 
C 2350 -1256 2356 -1244 2356 -1231 
C 2356 -1219 2350 -1206 2338 -1194 
L 1950 -806 
L 1556 -219 
L 1169 556 
L 975 1531 
L 975 2306 
L 1169 3281 
L 1556 4056 
L 1950 4644 
L 2338 5031 
C 2350 5044 2356 5056 2356 5069 
C 2356 5081 2350 5094 2344 5100 
L 2256 5188 
C 2244 5200 2225 5206 2213 5206 
z
" transform="scale(0.015625)"/>
       <path id="HersheyTex-29" d="M 500 5069 
C 500 5056 506 5044 513 5031 
L 906 4638 
L 1294 4056 
L 1681 3281 
L 1881 2306 
L 1881 1531 
L 1681 556 
L 1294 -219 
L 906 -800 
C 600 -1100 600 -1106 513 -1194 
C 500 -1206 500 -1225 500 -1238 
C 500 -1250 506 -1263 513 -1269 
L 600 -1356 
C 606 -1363 625 -1369 638 -1369 
C 650 -1369 663 -1363 675 -1356 
L 1156 -875 
C 1156 -869 1156 -869 1163 -863 
L 1556 -275 
L 1556 -269 
L 1956 531 
L 2150 1513 
C 2156 1519 2156 1519 2156 1525 
L 2156 2313 
C 2156 2319 2156 2319 2150 2325 
L 1956 3306 
L 1556 4106 
L 1556 4113 
L 1163 4700 
C 1156 4706 1156 4706 1156 4713 
L 675 5194 
C 663 5206 644 5206 631 5206 
C 619 5206 606 5200 600 5194 
L 513 5106 
C 506 5100 500 5081 500 5069 
z
" transform="scale(0.015625)"/>
       <path id="HersheyTex-7d" d="M 950 5244 
C 938 5244 925 5238 919 5231 
L 831 5144 
C 825 5138 819 5125 819 5113 
C 819 5100 825 5081 831 5075 
L 925 4988 
C 931 4981 925 4981 1319 4794 
L 1431 4681 
C 1431 4675 1638 4281 1638 4281 
L 1638 3888 
C 1638 3881 1450 3538 1431 3494 
C 1431 3494 1256 3325 1231 3294 
C 1231 3294 1038 2913 1038 2906 
C 1038 2900 1044 2900 1044 2894 
L 1044 2531 
C 1044 2519 1050 2506 1056 2500 
L 1531 2025 
L 1738 1919 
C 1550 1825 1525 1813 1519 1806 
C 1513 1800 1513 1794 1056 1338 
C 1050 1331 1044 1319 1044 1306 
L 1044 944 
C 1044 938 1038 938 1038 931 
C 1038 925 1238 544 1244 538 
C 1325 456 1325 456 1431 356 
L 1431 350 
C 1631 -44 1638 -50 1638 -50 
L 1638 -444 
C 1638 -444 1431 -838 1431 -844 
L 1413 -863 
C 1381 -900 1369 -906 1319 -956 
C 925 -1150 925 -1150 919 -1156 
L 831 -1244 
C 825 -1250 819 -1263 819 -1275 
C 819 -1288 825 -1300 831 -1306 
L 919 -1394 
C 925 -1400 938 -1406 950 -1406 
C 950 -1406 950 -1413 963 -1413 
C 969 -1413 1369 -1206 1375 -1200 
C 1488 -1094 1544 -1038 1569 -1013 
C 1688 -894 1688 -894 1694 -875 
L 1888 -494 
C 1900 -481 1906 -469 1906 -456 
C 1906 -450 1900 -444 1900 -444 
L 1900 -50 
C 1900 -50 1906 -44 1906 -38 
C 1906 -25 1900 -13 1888 0 
C 1700 375 1700 375 1694 394 
C 1688 406 1594 500 1588 500 
L 1488 600 
L 1306 956 
L 1306 1288 
L 1575 1556 
C 1975 1756 1975 1756 1981 1763 
L 2069 1850 
C 2094 1875 2094 1900 2094 1919 
C 2094 1931 2094 1963 2069 1988 
L 1981 2075 
C 1975 2081 1975 2081 1575 2281 
L 1306 2550 
L 1306 2881 
L 1488 3238 
L 1675 3425 
C 1688 3438 1688 3438 1694 3456 
L 1888 3838 
C 1900 3850 1906 3863 1906 3875 
C 1906 3881 1900 3888 1900 3888 
L 1900 4281 
C 1900 4281 1906 4288 1906 4294 
C 1906 4306 1900 4319 1888 4331 
C 1700 4706 1700 4706 1694 4725 
C 1681 4756 1381 5031 1375 5038 
C 1363 5050 969 5250 963 5250 
C 956 5250 956 5244 950 5244 
z
" transform="scale(0.015625)"/>
       <path id="HersheyTex-3d" d="M 838 1188 
L 4381 1188 
C 4394 1188 4413 1194 4419 1200 
L 4506 1288 
C 4513 1294 4519 1313 4519 1325 
C 4519 1338 4513 1356 4506 1363 
L 4419 1450 
C 4413 1456 4394 1463 4381 1463 
L 838 1463 
C 825 1463 806 1456 800 1450 
L 713 1363 
C 706 1356 700 1338 700 1325 
C 700 1313 706 1294 713 1288 
L 800 1200 
C 806 1194 825 1188 838 1188 
z
M 838 2375 
L 4381 2375 
C 4394 2375 4413 2381 4419 2388 
L 4506 2475 
C 4513 2481 4519 2500 4519 2513 
C 4519 2525 4513 2544 4506 2550 
L 4419 2638 
C 4413 2644 4394 2650 4381 2650 
L 838 2650 
C 825 2650 806 2644 800 2638 
L 713 2550 
C 706 2544 700 2525 700 2513 
C 700 2500 706 2481 713 2475 
L 800 2388 
C 806 2381 825 2375 838 2375 
z
" transform="scale(0.015625)"/>
      </defs>
      <use xlink:href="#HersheyTex-6c" transform="translate(0 0.96875)"/>
      <use xlink:href="#HersheyTex-6f" transform="translate(24.609375 0.96875)"/>
      <use xlink:href="#HersheyTex-67" transform="translate(83.007812 0.96875)"/>
      <use xlink:href="#HersheyTex-7b" transform="translate(156.787417 0.96875)"/>
      <use xlink:href="#HersheyTex-65" transform="translate(199.756167 0.96875)"/>
      <use xlink:href="#HersheyTex-78" transform="translate(255.029604 0.96875)"/>
      <use xlink:href="#HersheyTex-70" transform="translate(307.275698 0.96875)"/>
      <use xlink:href="#HersheyTex-28" transform="translate(381.055303 0.96875)"/>
      <use xlink:href="#HersheyTex-2212" transform="translate(424.121709 0.96875)"/>
      <use xlink:href="#HersheyTex-3be" transform="translate(467.188115 0.96875)"/>
      <use xlink:href="#HersheyTex-32" transform="translate(523.298949 34.2625)scale(0.7)"/>
      <use xlink:href="#HersheyTex-29" transform="translate(568.67512 0.96875)"/>
      <use xlink:href="#HersheyTex-7d" transform="translate(611.741527 0.96875)"/>
      <use xlink:href="#HersheyTex-3d" transform="translate(673.167308 0.96875)"/>
      <use xlink:href="#HersheyTex-2212" transform="translate(790.061839 0.96875)"/>
      <use xlink:href="#HersheyTex-3be" transform="translate(851.585277 0.96875)"/>
      <use xlink:href="#HersheyTex-32" transform="translate(907.69611 34.2625)scale(0.7)"/>
     </g>
    </g>
   </g>
   <g id="line2d_29">
    <path d="M 64.818182 231.676364 
L 67.892562 223.769455 
L 70.966942 216.023911 
L 74.041322 208.439733 
L 77.115702 201.01692 
L 80.190083 193.755473 
L 83.264463 186.655391 
L 86.338843 179.716675 
L 89.413223 172.939325 
L 92.487603 166.32334 
L 95.561983 159.86872 
L 98.636364 153.575466 
L 101.710744 147.443577 
L 104.785124 141.473054 
L 107.859504 135.663896 
L 110.933884 130.016104 
L 114.008264 124.529677 
L 117.082645 119.204616 
L 120.157025 114.04092 
L 123.231405 109.03859 
L 126.305785 104.197625 
L 129.380165 99.518026 
L 132.454545 94.999792 
L 135.528926 90.642924 
L 138.603306 86.447421 
L 141.677686 82.413284 
L 144.752066 78.540512 
L 147.826446 74.829106 
L 150.900826 71.279065 
L 153.975207 67.89039 
L 157.049587 64.66308 
L 160.123967 61.597135 
L 163.198347 58.692557 
L 166.272727 55.949343 
L 169.347107 53.367495 
L 172.421488 50.947013 
L 175.495868 48.687896 
L 178.570248 46.590145 
L 181.644628 44.653759 
L 184.719008 42.878738 
L 187.793388 41.265083 
L 190.867769 39.812794 
L 193.942149 38.52187 
L 197.016529 37.392312 
L 200.090909 36.424119 
L 203.165289 35.617291 
L 206.239669 34.971829 
L 209.31405 34.487733 
L 212.38843 34.165002 
L 215.46281 34.003636 
L 218.53719 34.003636 
L 221.61157 34.165002 
L 224.68595 34.487733 
L 227.760331 34.971829 
L 230.834711 35.617291 
L 233.909091 36.424119 
L 236.983471 37.392312 
L 240.057851 38.52187 
L 243.132231 39.812794 
L 246.206612 41.265083 
L 249.280992 42.878738 
L 252.355372 44.653759 
L 255.429752 46.590145 
L 258.504132 48.687896 
L 261.578512 50.947013 
L 264.652893 53.367495 
L 267.727273 55.949343 
L 270.801653 58.692557 
L 273.876033 61.597135 
L 276.950413 64.66308 
L 280.024793 67.89039 
L 283.099174 71.279065 
L 286.173554 74.829106 
L 289.247934 78.540512 
L 292.322314 82.413284 
L 295.396694 86.447421 
L 298.471074 90.642924 
L 301.545455 94.999792 
L 304.619835 99.518026 
L 307.694215 104.197625 
L 310.768595 109.03859 
L 313.842975 114.04092 
L 316.917355 119.204616 
L 319.991736 124.529677 
L 323.066116 130.016104 
L 326.140496 135.663896 
L 329.214876 141.473054 
L 332.289256 147.443577 
L 335.363636 153.575466 
L 338.438017 159.86872 
L 341.512397 166.32334 
L 344.586777 172.939325 
L 347.661157 179.716675 
L 350.735537 186.655391 
L 353.809917 193.755473 
L 356.884298 201.01692 
L 359.958678 208.439733 
L 363.033058 216.023911 
L 366.107438 223.769455 
L 369.181818 231.676364 
" clip-path="url(#pb0e32ba393)" style="fill: none; stroke: #000000; stroke-width: 0.5; stroke-linecap: square"/>
   </g>
   <g id="patch_3">
    <path d="M 49.6 241.56 
L 49.6 24.12 
" style="fill: none; stroke: #000000; stroke-width: 0.45; stroke-linejoin: miter; stroke-linecap: square"/>
   </g>
   <g id="patch_4">
    <path d="M 384.4 241.56 
L 384.4 24.12 
" style="fill: none; stroke: #000000; stroke-width: 0.45; stroke-linejoin: miter; stroke-linecap: square"/>
   </g>
   <g id="patch_5">
    <path d="M 49.6 241.56 
L 384.4 241.56 
" style="fill: none; stroke: #000000; stroke-width: 0.45; stroke-linejoin: miter; stroke-linecap: square"/>
   </g>
   <g id="patch_6">
    <path d="M 49.6 24.12 
L 384.4 24.12 
" style="fill: none; stroke: #000000; stroke-width: 0.45; stroke-linejoin: miter; stroke-linecap: square"/>
   </g>
   <g id="text_14">
    <!-- My quantity: $e^{-\xi^2}$ -->
    <g transform="translate(172.36 18.12)scale(0.12 -0.12)">
     <defs>
      <path id="HersheyTex-4d" d="M 3988 4419 
C 3975 4419 3963 4413 3956 4406 
C 3863 4313 3863 4313 3856 4300 
L 2413 519 
L 969 4300 
C 963 4313 963 4313 869 4406 
C 863 4413 850 4419 838 4419 
C 825 4419 806 4413 800 4406 
L 713 4319 
C 706 4313 700 4294 700 4281 
L 700 150 
C 700 138 706 119 713 113 
L 800 25 
C 806 19 825 13 838 13 
C 850 13 869 19 875 25 
L 963 113 
C 969 119 975 138 975 150 
L 975 3550 
L 2281 131 
C 2281 119 2288 113 2294 106 
L 2381 19 
C 2388 13 2400 6 2413 6 
C 2425 6 2438 13 2444 19 
L 2531 106 
C 2538 113 2544 119 2544 131 
L 3850 3550 
L 3850 150 
C 3850 138 3856 119 3863 113 
L 3950 25 
C 3956 19 3975 13 3988 13 
C 4000 13 4019 19 4025 25 
L 4113 113 
C 4119 119 4125 138 4125 150 
L 4125 4281 
C 4125 4294 4119 4313 4113 4319 
L 4025 4406 
C 4019 4413 4000 4419 3988 4419 
z
" transform="scale(0.015625)"/>
      <path id="HersheyTex-79" d="M 2800 3044 
C 2788 3044 2775 3038 2769 3031 
C 2675 2938 2675 2938 2669 2925 
L 1625 481 
L 575 2925 
C 569 2938 569 2938 475 3031 
C 469 3038 456 3044 444 3044 
C 431 3044 419 3038 406 3025 
L 319 2938 
C 313 2931 300 2913 300 2900 
C 300 2894 306 2888 306 2881 
L 1481 150 
L 1100 -613 
L 806 -906 
L 431 -1094 
L 244 -1094 
C 231 -1094 213 -1100 206 -1106 
L 119 -1194 
C 113 -1200 106 -1219 106 -1231 
C 106 -1244 113 -1263 119 -1269 
L 206 -1356 
C 213 -1363 231 -1369 244 -1369 
L 438 -1369 
C 444 -1369 456 -1369 463 -1363 
L 856 -1169 
L 1363 -663 
L 1756 125 
L 2938 2881 
C 2938 2888 2944 2894 2944 2900 
C 2944 2913 2931 2931 2925 2938 
L 2838 3025 
C 2825 3038 2813 3044 2800 3044 
z
" transform="scale(0.015625)"/>
      <path id="HersheyTex-20" transform="scale(0.015625)"/>
      <path id="HersheyTex-71" d="M 2863 2900 
L 2863 2613 
C 2663 2819 2638 2838 2631 2838 
L 2238 3038 
L 1600 3038 
L 1206 2838 
C 1200 2838 1200 2838 1194 2831 
C 738 2375 644 2275 644 2275 
L 700 2331 
L 500 1738 
L 500 1313 
L 700 719 
L 706 713 
C 706 706 706 706 1194 219 
C 1200 213 1200 213 1206 213 
L 1600 13 
L 2238 13 
L 2631 213 
C 2638 213 2638 213 2644 219 
L 2863 438 
L 2863 -1231 
C 2863 -1244 2869 -1263 2875 -1269 
L 2963 -1356 
C 2969 -1363 2988 -1369 3000 -1369 
C 3013 -1369 3031 -1363 3038 -1356 
L 3125 -1269 
C 3131 -1263 3138 -1244 3138 -1231 
L 3138 2900 
C 3138 2913 3131 2931 3125 2938 
L 3038 3025 
C 3031 3031 3013 3038 3000 3038 
C 2988 3038 2969 3031 2963 3025 
L 2875 2938 
C 2869 2931 2863 2913 2863 2900 
z
M 2863 756 
L 2575 475 
L 2200 288 
L 1631 288 
L 1256 475 
L 963 763 
L 775 1338 
L 775 1713 
L 963 2288 
L 1256 2575 
L 1631 2763 
L 2200 2763 
L 2575 2575 
L 2863 2294 
L 2863 756 
z
" transform="scale(0.015625)"/>
      <path id="HersheyTex-75" d="M 2863 2900 
L 2863 956 
L 2381 475 
L 2006 288 
L 1438 288 
L 1144 431 
L 975 944 
L 975 2900 
C 975 2913 969 2931 963 2938 
L 875 3025 
C 869 3031 850 3038 838 3038 
C 825 3038 806 3031 800 3025 
L 713 2938 
C 706 2931 700 2913 700 2900 
L 700 919 
L 900 325 
C 906 313 906 313 1000 219 
C 1006 213 1000 219 1406 13 
L 2044 13 
L 2438 213 
C 2444 213 2444 213 2450 219 
L 2863 631 
L 2863 150 
C 2863 138 2869 119 2875 113 
L 2963 25 
C 2969 19 2988 13 3000 13 
C 3013 13 3031 19 3038 25 
L 3125 113 
C 3131 119 3138 138 3138 150 
L 3138 2900 
C 3138 2913 3131 2931 3125 2938 
L 3038 3025 
C 3031 3031 3013 3038 3000 3038 
C 2988 3038 2969 3031 2963 3025 
L 2875 2938 
C 2869 2931 2863 2913 2863 2900 
z
" transform="scale(0.015625)"/>
      <path id="HersheyTex-61" d="M 2863 2900 
L 2863 2613 
C 2663 2819 2638 2838 2631 2838 
L 2238 3038 
L 1600 3038 
L 1206 2838 
C 1200 2838 1200 2838 1194 2831 
C 738 2375 644 2275 644 2275 
L 700 2331 
L 500 1738 
L 500 1313 
L 700 719 
L 706 713 
C 706 706 706 706 1194 219 
C 1200 213 1200 213 1206 213 
L 1600 13 
L 2238 13 
L 2631 213 
C 2638 213 2638 213 2644 219 
L 2863 438 
L 2863 150 
C 2863 138 2869 119 2875 113 
L 2963 25 
C 2969 19 2988 13 3000 13 
C 3013 13 3031 19 3038 25 
L 3125 113 
C 3131 119 3138 138 3138 150 
L 3138 2900 
C 3138 2913 3131 2931 3125 2938 
L 3038 3025 
C 3031 3031 3013 3038 3000 3038 
C 2988 3038 2969 3031 2963 3025 
L 2875 2938 
C 2869 2931 2863 2913 2863 2900 
z
M 2863 756 
L 2575 475 
L 2200 288 
L 1631 288 
L 1256 475 
L 963 763 
L 775 1338 
L 775 1713 
L 963 2288 
L 1256 2575 
L 1631 2763 
L 2200 2763 
L 2575 2575 
L 2863 2294 
L 2863 756 
z
" transform="scale(0.015625)"/>
      <path id="HersheyTex-6e" d="M 700 2900 
L 700 150 
C 700 138 706 119 713 113 
L 800 25 
C 806 19 825 13 838 13 
C 850 13 869 19 875 25 
L 963 113 
C 969 119 975 138 975 150 
L 975 2094 
L 1456 2575 
L 1831 2763 
L 2400 2763 
L 2694 2619 
L 2863 2106 
L 2863 150 
C 2863 138 2869 119 2875 113 
L 2963 25 
C 2969 19 2988 13 3000 13 
C 3013 13 3031 19 3038 25 
L 3125 113 
C 3131 119 3138 138 3138 150 
L 3138 2131 
L 2944 2725 
C 2938 2738 2938 2738 2844 2831 
C 2838 2838 2844 2831 2438 3038 
L 1800 3038 
L 1406 2838 
C 1400 2838 1400 2838 1394 2831 
L 975 2413 
L 975 2900 
C 975 2913 969 2931 963 2938 
L 875 3025 
C 869 3031 850 3038 838 3038 
C 825 3038 806 3031 800 3025 
L 713 2938 
C 706 2931 700 2913 700 2900 
z
" transform="scale(0.015625)"/>
      <path id="HersheyTex-74" d="M 444 2763 
L 900 2763 
L 900 919 
L 1094 325 
C 1100 313 1100 313 1194 219 
C 1200 213 1194 219 1600 13 
L 2019 13 
C 2031 13 2050 19 2056 25 
L 2144 113 
C 2150 119 2156 138 2156 150 
C 2156 163 2150 181 2144 188 
L 2056 275 
C 2050 281 2031 288 2019 288 
L 1638 288 
L 1344 431 
L 1175 944 
L 1175 2763 
L 1825 2763 
C 1838 2763 1856 2769 1863 2775 
L 1950 2863 
C 1956 2869 1963 2888 1963 2900 
C 1963 2913 1956 2931 1950 2938 
L 1863 3025 
C 1856 3031 1838 3038 1825 3038 
L 1175 3038 
L 1175 4281 
C 1175 4294 1169 4313 1163 4319 
L 1075 4406 
C 1069 4413 1050 4419 1038 4419 
C 1025 4419 1006 4413 1000 4406 
L 913 4319 
C 906 4313 900 4294 900 4281 
L 900 3038 
L 444 3038 
C 431 3038 413 3031 406 3025 
L 319 2938 
C 313 2931 306 2913 306 2900 
C 306 2888 313 2869 319 2863 
L 406 2775 
C 413 2769 431 2763 444 2763 
z
" transform="scale(0.015625)"/>
      <path id="HersheyTex-69" d="M 694 2900 
L 694 150 
C 694 138 700 119 706 113 
L 794 25 
C 800 19 819 13 831 13 
C 844 13 863 19 869 25 
L 956 113 
C 963 119 969 138 969 150 
L 969 2900 
C 969 2913 963 2931 956 2938 
L 869 3025 
C 863 3031 844 3038 831 3038 
C 819 3038 800 3031 794 3025 
L 706 2938 
C 700 2931 694 2913 694 2900 
z
M 869 4281 
L 831 4244 
L 794 4281 
L 831 4319 
L 869 4281 
z
M 500 4281 
C 500 4269 506 4256 513 4244 
C 600 4156 681 4075 769 3994 
C 819 3944 819 3944 831 3944 
C 844 3944 856 3950 869 3963 
C 963 4056 1063 4150 1156 4244 
C 1169 4256 1169 4269 1169 4281 
C 1169 4294 1169 4306 1156 4319 
C 1069 4406 1069 4406 869 4600 
C 856 4613 844 4619 831 4619 
C 825 4619 813 4613 806 4606 
C 806 4606 563 4369 513 4319 
C 506 4306 500 4294 500 4281 
z
" transform="scale(0.015625)"/>
      <path id="HersheyTex-3a" d="M 1369 344 
C 1369 356 1369 369 1356 381 
C 1263 475 1163 569 1069 663 
C 1063 669 1050 675 1038 675 
C 1025 675 1006 669 1000 663 
C 906 569 806 475 713 381 
C 700 369 700 356 700 344 
C 700 331 700 319 713 306 
C 800 219 881 138 969 56 
C 1019 6 1019 6 1031 6 
C 1044 6 1056 13 1069 25 
C 1163 119 1263 213 1356 306 
C 1369 319 1369 331 1369 344 
z
M 1369 2706 
C 1369 2719 1369 2731 1356 2744 
C 1263 2838 1163 2931 1069 3025 
C 1063 3031 1050 3038 1038 3038 
C 1025 3038 1006 3031 1000 3025 
C 906 2931 806 2838 713 2744 
C 700 2731 700 2719 700 2706 
C 700 2694 700 2681 713 2669 
C 800 2581 881 2500 969 2419 
C 1019 2369 1019 2369 1031 2369 
C 1044 2369 1056 2375 1069 2388 
C 1163 2481 1263 2575 1356 2669 
C 1369 2681 1369 2694 1369 2706 
z
M 1031 306 
L 994 344 
L 1031 381 
L 1069 344 
L 1031 306 
z
M 1031 2669 
L 994 2706 
L 1031 2744 
L 1069 2706 
L 1031 2669 
z
" transform="scale(0.015625)"/>
     </defs>
     <use xlink:href="#HersheyTex-4d" transform="translate(0 0.567656)"/>
     <use xlink:href="#HersheyTex-79" transform="translate(73.828125 0.567656)"/>
     <use xlink:href="#HersheyTex-20" transform="translate(123.046875 0.567656)"/>
     <use xlink:href="#HersheyTex-71" transform="translate(146.09375 0.567656)"/>
     <use xlink:href="#HersheyTex-75" transform="translate(204.492188 0.567656)"/>
     <use xlink:href="#HersheyTex-61" transform="translate(262.890625 0.567656)"/>
     <use xlink:href="#HersheyTex-6e" transform="translate(321.289062 0.567656)"/>
     <use xlink:href="#HersheyTex-74" transform="translate(379.6875 0.567656)"/>
     <use xlink:href="#HersheyTex-69" transform="translate(416.601562 0.567656)"/>
     <use xlink:href="#HersheyTex-74" transform="translate(441.113281 0.567656)"/>
     <use xlink:href="#HersheyTex-79" transform="translate(478.027344 0.567656)"/>
     <use xlink:href="#HersheyTex-3a" transform="translate(527.246094 0.567656)"/>
     <use xlink:href="#HersheyTex-20" transform="translate(558.007812 0.567656)"/>
     <use xlink:href="#HersheyTex-65" transform="translate(581.054688 0.567656)"/>
     <use xlink:href="#HersheyTex-2212" transform="translate(640.199271 33.861406)scale(0.7)"/>
     <use xlink:href="#HersheyTex-3be" transform="translate(670.345755 33.861406)scale(0.7)"/>
     <use xlink:href="#HersheyTex-32" transform="translate(709.623339 57.167031)scale(0.49)"/>
    </g>
   </g>
  </g>
 </g>
 <defs>
  <clipPath id="pb0e32ba393">
   <rect x="49.6" y="24.12" width="334.8" height="217.44"/>
  </clipPath>
 </defs>
</svg>
